Coordinates
version=1
nRows=8
nColumns=36
inDegrees=yes

Units are S.I. units (second, meters, Newtons, ...)
If the header above contains a line with 'inDegrees', this indicates whether rotational values are in degrees (yes) or radians (no).

endheader
time	pelvis_tilt	pelvis_list	pelvis_rotation	pelvis_tx	pelvis_ty	pelvis_tz	hip_flexion_r	hip_adduction_r	hip_rotation_r	knee_angle_r	knee_angle_r_beta	ankle_angle_r	subtalar_angle_r	mtp_angle_r	hip_flexion_l	hip_adduction_l	hip_rotation_l	knee_angle_l	knee_angle_l_beta	ankle_angle_l	subtalar_angle_l	mtp_angle_l	lumbar_extension	lumbar_bending	lumbar_rotation	arm_flex_r	arm_add_r	arm_rot_r	elbow_flex_r	pro_sup_r	arm_flex_l	arm_add_l	arm_rot_l	elbow_flex_l	pro_sup_l
      1.70000000	      1.51294567	      2.52688879	      2.68349516	     -0.11509303	      1.20324697	      0.02134648	      2.37179642	     -3.54720156	     -4.75362705	      9.96963881	      0.17400302	     17.87445649	      8.12519845	     -7.49999986	      4.79601918	      4.37524815	    -12.58943618	     12.53356412	      0.21875196	      7.03484550	      1.62110025	     -7.49999986	      0.43165592	     -4.59144021	     -4.17714668	      3.36741598	     -7.87860499	     46.11750967	     17.21654365	     61.69572489	      0.18028627	     -9.41294671	     50.85899796	     15.69695928	     54.21411057
      1.71666670	      1.43581384	      2.50668888	      2.73720397	     -0.11527706	      1.20623692	      0.02107745	      2.37741735	     -3.57000972	     -5.01043174	      9.91609342	      0.17306848	     17.97472322	      8.23459885	     -7.49999987	      4.79634223	      4.39794825	    -12.53382736	     12.44422702	      0.21719273	      7.19171727	      1.72195909	     -7.49999987	      0.64068699	     -4.57467673	     -4.20331917	      3.50793487	     -7.93788273	     49.41452961	     16.69036199	     58.69393281	      0.72584703	     -9.46758579	     55.58052418	     15.33700038	     48.26833728
      1.73333330	      1.38056376	      2.52508398	      2.80329164	     -0.11563920	      1.20276550	      0.02046111	      2.40897403	     -3.62865187	     -5.10235722	      9.76062645	      0.17035507	     18.21476043	      8.12261002	     -7.49999987	      4.75598776	      4.47209553	    -12.45165534	     12.29450789	      0.21457964	      7.26596880	      1.78130131	     -7.49999987	      0.65226185	     -4.57509159	     -4.13304804	      3.30974662	     -7.87604714	     48.52237671	     16.74485634	     58.99707152	      0.87308611	     -9.44779886	     54.44493991	     15.55120903	     48.97617106
      1.75000000	      1.46224415	      2.51562251	      2.77454924	     -0.11534614	      1.20365061	      0.02096681	      2.13710889	     -3.58408493	     -5.05149245	      9.48943906	      0.16562196	     17.99433594	      8.14993607	     -7.49999987	      4.53706296	      4.49254882	    -12.45508912	     12.02370798	      0.20985329	      7.10841939	      1.75600933	     -7.49999987	      0.55556633	     -4.56175491	     -3.99858383	      3.21852355	     -7.94337084	     48.42309368	     16.92557769	     59.09853002	      1.07229075	     -9.48416003	     54.15843665	     15.90023985	     49.57342082
      1.76666670	      1.37378459	      2.50753540	      2.73390294	     -0.11685035	      1.20382037	      0.02062902	      2.16500316	     -3.57599941	     -5.05449850	      9.39387039	      0.16395397	     17.85720544	      8.08963084	     -7.49999987	      4.55453551	      4.56676169	    -12.26062714	     11.77884014	      0.20557954	      7.33926627	      1.94907407	     -7.49999987	      0.63739641	     -4.50790253	     -3.93455808	      3.18216533	     -7.89842469	     48.43804022	     16.77216948	     59.30674856	      1.25588593	     -9.39047642	     53.89135984	     15.81461153	     50.46844227
      1.78333330	      1.31107053	      2.49776099	      2.70158518	     -0.11740835	      1.20151785	      0.02076362	      2.15791829	     -3.52703594	     -4.90859073	      9.17069335	      0.16005879	     18.13868223	      8.11278703	     -7.49999987	      4.55176294	      4.62815307	    -12.16362912	     11.49304514	      0.20059148	      7.68004271	      2.14568469	     -7.49999987	      0.71938206	     -4.45571895	     -3.67069475	      3.15971805	     -7.93285945	     48.51452967	     16.76067089	     59.45415315	      1.36825256	     -9.30190734	     53.61529012	     15.93700445	     51.15550487
      1.80000000	      1.20114426	      2.45047373	      2.71903882	     -0.11815660	      1.20286104	      0.02084928	      2.06280903	     -3.48649210	     -5.34458072	      9.02472151	      0.15751110	     17.99270208	      8.75543558	     -7.49999987	      4.54729271	      4.57834256	    -12.38082405	     11.23278534	      0.19604909	      7.88961979	      2.95210707	     -7.49999987	      0.87555913	     -4.38355693	     -3.77971770	      3.38290308	     -8.03036567	     50.26750743	     16.64048803	     59.81005420	      1.42109996	     -9.38970445	     54.00613148	     16.21435651	     51.10689491
      1.81666670	      1.13192735	      2.40667891	      2.66285668	     -0.11798902	      1.20047370	      0.02044810	      2.03831522	     -3.37858145	     -4.97548719	      8.91717498	      0.15563406	     17.86291329	      8.65332821	     -7.49999987	      4.50408427	      4.59561222	    -12.25579718	     11.02590207	      0.19243829	      7.94426571	      2.87902722	     -7.49999987	      0.98249328	     -4.24753433	     -3.58036630	      3.36032109	     -8.05408800	     49.17024329	     16.72741741	     59.68868989	      1.34901716	     -9.19292318	     52.27788316	     16.34896035	     52.23891462
